<svg width="551" height="99" viewBox="0 0 551 99" fill="none" xmlns="http://www.w3.org/2000/svg">
<g filter="url(#filter0_i_4_3)">
<path d="M32.512 8.064C26.0267 10.1973 20.992 13.7387 17.408 18.688C13.9093 23.552 12.16 29.6107 12.16 36.864C12.16 40.1067 12.4587 42.3253 13.056 43.52C13.6533 44.7147 13.952 45.44 13.952 45.696C4.82133 45.696 0.256001 41.8133 0.256001 34.048C0.256001 28.7573 2.26133 23.4667 6.272 18.176C10.368 12.8 15.5733 8.44801 21.888 5.12C28.288 1.70667 34.6453 0 40.96 0C44.1173 0 47.36 0.597333 50.688 1.792L47.744 69.248L75.904 1.792H94.336L80.896 96H62.464L70.656 38.528L46.592 96H29.056L31.616 38.272L10.24 96H0L32.512 8.064Z" fill="url(#paint0_linear_4_3)"/>
<path d="M113.422 96.512C107.107 96.512 102.115 94.8907 98.446 91.648C94.7767 88.4053 92.942 83.2853 92.942 76.288C92.942 70.4853 94.1367 64.0427 96.526 56.96C98.9153 49.8773 102.755 43.776 108.046 38.656C113.337 33.4507 119.993 30.848 128.014 30.848C138.937 30.848 144.398 37.6747 144.398 51.328V51.456C144.654 51.5413 145.123 51.584 145.806 51.584C148.622 51.584 151.865 50.8587 155.534 49.408C159.203 47.872 162.531 46.0373 165.518 43.904L166.67 47.36C164.195 50.0053 160.953 52.2667 156.942 54.144C153.017 55.936 148.707 57.216 144.014 57.984C143.331 65.7493 141.582 72.5333 138.766 78.336C135.95 84.1387 132.323 88.6187 127.886 91.776C123.449 94.9333 118.627 96.512 113.422 96.512ZM118.542 84.992C120.59 84.992 122.638 83.84 124.686 81.536C126.734 79.1467 128.526 75.9467 130.062 71.936C131.598 67.84 132.707 63.3173 133.39 58.368C131.086 57.856 129.934 56.064 129.934 52.992C129.934 49.4933 131.257 47.1893 133.902 46.08C133.731 43.264 133.305 41.344 132.622 40.32C131.939 39.2107 130.745 38.656 129.038 38.656C126.222 38.656 123.491 40.704 120.846 44.8C118.201 48.896 116.067 53.8027 114.446 59.52C112.825 65.2373 112.014 70.272 112.014 74.624C112.014 78.72 112.483 81.4933 113.422 82.944C114.361 84.3093 116.067 84.992 118.542 84.992Z" fill="url(#paint1_linear_4_3)"/>
<path d="M168.136 96.768C163.187 96.768 159.304 95.5307 156.488 93.056C153.757 90.496 152.392 86.6987 152.392 81.664C152.392 79.616 152.605 77.568 153.032 75.52L162.248 32H180.68L171.464 75.52C171.037 77.6533 170.824 79.1893 170.824 80.128C170.824 82.944 172.275 84.352 175.176 84.352C179.101 84.352 182.728 81.8773 186.056 76.928C189.469 71.9787 192.2 66.0907 194.248 59.264C196.296 52.4373 197.32 46.5493 197.32 41.6C197.149 42.0267 196.595 42.368 195.656 42.624C194.717 42.7947 193.907 42.88 193.224 42.88C191.773 42.88 190.621 42.1973 189.768 40.832C189 39.4667 188.616 37.9733 188.616 36.352C188.616 34.304 189.256 32.64 190.536 31.36C191.901 30.08 193.907 29.44 196.552 29.44C199.368 29.44 201.416 30.5067 202.696 32.64C203.976 34.688 204.616 37.3333 204.616 40.576C204.616 48.256 203.293 56.4907 200.648 65.28C198.003 73.984 193.949 81.408 188.488 87.552C183.027 93.696 176.243 96.768 168.136 96.768Z" fill="url(#paint2_linear_4_3)"/>
<path d="M230.48 25.088C227.664 25.088 225.275 24.1067 223.312 22.144C221.349 20.1813 220.368 17.792 220.368 14.976C220.368 12.16 221.349 9.77067 223.312 7.80801C225.275 5.76 227.664 4.736 230.48 4.736C233.296 4.736 235.685 5.76 237.648 7.80801C239.696 9.77067 240.72 12.16 240.72 14.976C240.72 17.792 239.696 20.1813 237.648 22.144C235.685 24.1067 233.296 25.088 230.48 25.088ZM221.776 96.768C217.68 96.768 214.352 95.488 211.792 92.928C209.317 90.368 208.08 86.528 208.08 81.408C208.08 79.2747 208.421 76.5013 209.104 73.088L217.808 32H236.24L227.024 75.52C226.683 76.8 226.512 78.1653 226.512 79.616C226.512 81.3227 226.896 82.56 227.664 83.328C228.517 84.0107 229.883 84.352 231.76 84.352C234.235 84.352 236.539 83.328 238.672 81.28C240.805 79.1467 242.341 76.416 243.28 73.088H248.656C245.499 82.304 241.445 88.576 236.496 91.904C231.547 95.1467 226.64 96.768 221.776 96.768Z" fill="url(#paint3_linear_4_3)"/>
<path d="M263.837 96.768C257.608 96.768 252.744 95.1467 249.245 91.904C245.746 88.576 243.997 83.4133 243.997 76.416C243.997 70.528 245.149 64.0427 247.453 56.96C249.757 49.8773 253.512 43.776 258.717 38.656C263.922 33.4507 270.536 30.848 278.557 30.848C287.944 30.848 292.637 34.944 292.637 43.136C292.637 47.9147 291.272 52.3093 288.541 56.32C285.81 60.3307 282.184 63.5733 277.661 66.048C273.138 68.4373 268.317 69.8027 263.197 70.144C263.026 72.0213 262.941 73.3013 262.941 73.984C262.941 81.0667 265.586 84.608 270.877 84.608C273.266 84.608 275.826 83.968 278.557 82.688C281.288 81.408 283.762 79.7867 285.981 77.824C283.677 90.4533 276.296 96.768 263.837 96.768ZM264.093 64C267.336 63.9147 270.365 62.848 273.181 60.8C276.082 58.752 278.386 56.1493 280.093 52.992C281.885 49.7493 282.781 46.3787 282.781 42.88C282.781 39.3813 281.714 37.632 279.581 37.632C276.594 37.632 273.608 40.3627 270.621 45.824C267.72 51.2 265.544 57.2587 264.093 64Z" fill="url(#paint4_linear_4_3)"/>
<path d="M351.032 98.176C344.376 98.176 341.048 95.3173 341.048 89.6C341.048 87.7227 341.304 85.5893 341.816 83.2C342.413 80.7253 343.224 77.568 344.248 73.728C345.443 69.7173 346.339 66.304 346.936 63.488C347.533 60.672 347.832 58.1547 347.832 55.936C347.832 50.1333 345.272 47.232 340.152 47.232C338.701 47.232 337.293 47.4027 335.928 47.744L325.688 96H307.256L325.816 8.96001C320.099 11.3493 315.661 14.9333 312.504 19.712C309.432 24.4907 307.896 30.2507 307.896 36.992C307.896 40.1493 308.195 42.368 308.792 43.648C309.389 44.8427 309.688 45.5253 309.688 45.696C305.08 45.696 301.624 44.7573 299.32 42.88C297.101 40.9173 295.992 37.7173 295.992 33.28C295.992 27.8187 298.211 22.528 302.648 17.408C307.171 12.2027 312.931 8.02134 319.928 4.86401C326.925 1.62134 333.923 0 340.92 0C342.115 0 343.821 0.0853348 346.04 0.256004L337.72 39.424L350.904 21.76C361.4 7.59467 366.691 0.554667 366.776 0.639999H380.216L344.632 41.6L349.112 41.472C354.915 41.472 359.011 42.7093 361.4 45.184C363.789 47.5733 364.984 50.9013 364.984 55.168C364.984 57.6427 364.685 60.288 364.088 63.104C363.491 65.8347 362.637 69.248 361.528 73.344C360.845 75.9893 360.205 78.592 359.608 81.152C359.011 83.712 358.712 85.8453 358.712 87.552C358.712 89.5147 359.139 91.264 359.992 92.8C360.931 94.336 362.168 95.4027 363.704 96C358.499 97.4507 354.275 98.176 351.032 98.176Z" fill="url(#paint5_linear_4_3)"/>
<path d="M420.867 96.768C415.662 96.768 411.822 95.4027 409.347 92.672C406.958 89.856 405.763 86.4 405.763 82.304C405.763 80.512 405.976 78.5067 406.403 76.288C406.83 73.984 407.256 71.7653 407.683 69.632C408.195 67.4987 408.536 66.1333 408.707 65.536C409.39 62.5493 410.03 59.6053 410.627 56.704C411.224 53.8027 411.523 51.456 411.523 49.664C411.523 45.312 409.987 43.136 406.915 43.136C404.696 43.136 402.734 44.2453 401.027 46.464C399.32 48.5973 397.955 51.4133 396.931 54.912L388.227 96H369.795L388.355 8.96001L407.299 6.4L400.387 38.656C404.654 33.8773 409.646 31.488 415.363 31.488C419.715 31.488 423.171 32.6827 425.731 35.072C428.291 37.4613 429.571 41.088 429.571 45.952C429.571 48.4267 429.272 51.2 428.675 54.272C428.078 57.2587 427.224 60.928 426.115 65.28C425.432 67.9253 424.792 70.528 424.195 73.088C423.683 75.5627 423.427 77.5253 423.427 78.976C423.427 80.6827 423.811 82.0053 424.579 82.944C425.347 83.8827 426.67 84.352 428.547 84.352C431.107 84.352 433.155 83.456 434.691 81.664C436.227 79.7867 437.763 76.928 439.299 73.088H444.675C441.518 82.4747 437.848 88.7893 433.667 92.032C429.571 95.1893 425.304 96.768 420.867 96.768Z" fill="url(#paint6_linear_4_3)"/>
<path d="M460.532 96.512C454.217 96.512 449.225 94.8907 445.556 91.648C441.887 88.4053 440.052 83.2853 440.052 76.288C440.052 70.4853 441.247 64.0427 443.636 56.96C446.025 49.8773 449.865 43.776 455.156 38.656C460.447 33.4507 467.103 30.848 475.124 30.848C486.047 30.848 491.508 37.6747 491.508 51.328V51.456C491.764 51.5413 492.233 51.584 492.916 51.584C495.732 51.584 498.975 50.8587 502.644 49.408C506.313 47.872 509.641 46.0373 512.628 43.904L513.78 47.36C511.305 50.0053 508.063 52.2667 504.052 54.144C500.127 55.936 495.817 57.216 491.124 57.984C490.441 65.7493 488.692 72.5333 485.876 78.336C483.06 84.1387 479.433 88.6187 474.996 91.776C470.559 94.9333 465.737 96.512 460.532 96.512ZM465.652 84.992C467.7 84.992 469.748 83.84 471.796 81.536C473.844 79.1467 475.636 75.9467 477.172 71.936C478.708 67.84 479.817 63.3173 480.5 58.368C478.196 57.856 477.044 56.064 477.044 52.992C477.044 49.4933 478.367 47.1893 481.012 46.08C480.841 43.264 480.415 41.344 479.732 40.32C479.049 39.2107 477.855 38.656 476.148 38.656C473.332 38.656 470.601 40.704 467.956 44.8C465.311 48.896 463.177 53.8027 461.556 59.52C459.935 65.2373 459.124 70.272 459.124 74.624C459.124 78.72 459.593 81.4933 460.532 82.944C461.471 84.3093 463.177 84.992 465.652 84.992Z" fill="url(#paint7_linear_4_3)"/>
<path d="M509.358 32H527.79L526.126 39.936C529.027 37.376 531.63 35.4133 533.934 34.048C536.323 32.6827 538.883 32 541.614 32C544.345 32 546.478 32.9387 548.014 34.816C549.635 36.6933 550.446 38.9547 550.446 41.6C550.446 44.0747 549.635 46.2507 548.014 48.128C546.393 50.0053 544.131 50.944 541.23 50.944C539.353 50.944 538.073 50.5173 537.39 49.664C536.793 48.7253 536.323 47.4027 535.982 45.696C535.726 44.5867 535.47 43.776 535.214 43.264C534.958 42.752 534.489 42.496 533.806 42.496C532.014 42.496 530.478 42.88 529.198 43.648C528.003 44.3307 526.425 45.568 524.462 47.36L514.222 96H495.79L509.358 32Z" fill="url(#paint8_linear_4_3)"/>
</g>
<defs>
<filter id="filter0_i_4_3" x="0" y="0" width="550.446" height="102.176" filterUnits="userSpaceOnUse" color-interpolation-filters="sRGB">
<feFlood flood-opacity="0" result="BackgroundImageFix"/>
<feBlend mode="normal" in="SourceGraphic" in2="BackgroundImageFix" result="shape"/>
<feColorMatrix in="SourceAlpha" type="matrix" values="0 0 0 0 0 0 0 0 0 0 0 0 0 0 0 0 0 0 127 0" result="hardAlpha"/>
<feOffset dy="4"/>
<feGaussianBlur stdDeviation="10"/>
<feComposite in2="hardAlpha" operator="arithmetic" k2="-1" k3="1"/>
<feColorMatrix type="matrix" values="0 0 0 0 0.369333 0 0 0 0 0.266667 0 0 0 0 1 0 0 0 1 0"/>
<feBlend mode="normal" in2="shape" result="effect1_innerShadow_4_3"/>
</filter>
<linearGradient id="paint0_linear_4_3" x1="569.424" y1="66" x2="-50.576" y2="59.0001" gradientUnits="userSpaceOnUse">
<stop stop-color="#CD8DFF"/>
<stop offset="0.226953" stop-color="#D88AE0"/>
<stop offset="1" stop-color="#FF7D75"/>
</linearGradient>
<linearGradient id="paint1_linear_4_3" x1="569.424" y1="66" x2="-50.576" y2="59.0001" gradientUnits="userSpaceOnUse">
<stop stop-color="#CD8DFF"/>
<stop offset="0.226953" stop-color="#D88AE0"/>
<stop offset="1" stop-color="#FF7D75"/>
</linearGradient>
<linearGradient id="paint2_linear_4_3" x1="569.424" y1="66" x2="-50.576" y2="59.0001" gradientUnits="userSpaceOnUse">
<stop stop-color="#CD8DFF"/>
<stop offset="0.226953" stop-color="#D88AE0"/>
<stop offset="1" stop-color="#FF7D75"/>
</linearGradient>
<linearGradient id="paint3_linear_4_3" x1="569.424" y1="66" x2="-50.576" y2="59.0001" gradientUnits="userSpaceOnUse">
<stop stop-color="#CD8DFF"/>
<stop offset="0.226953" stop-color="#D88AE0"/>
<stop offset="1" stop-color="#FF7D75"/>
</linearGradient>
<linearGradient id="paint4_linear_4_3" x1="569.424" y1="66" x2="-50.576" y2="59.0001" gradientUnits="userSpaceOnUse">
<stop stop-color="#CD8DFF"/>
<stop offset="0.226953" stop-color="#D88AE0"/>
<stop offset="1" stop-color="#FF7D75"/>
</linearGradient>
<linearGradient id="paint5_linear_4_3" x1="569.424" y1="66" x2="-50.576" y2="59.0001" gradientUnits="userSpaceOnUse">
<stop stop-color="#CD8DFF"/>
<stop offset="0.226953" stop-color="#D88AE0"/>
<stop offset="1" stop-color="#FF7D75"/>
</linearGradient>
<linearGradient id="paint6_linear_4_3" x1="569.424" y1="66" x2="-50.576" y2="59.0001" gradientUnits="userSpaceOnUse">
<stop stop-color="#CD8DFF"/>
<stop offset="0.226953" stop-color="#D88AE0"/>
<stop offset="1" stop-color="#FF7D75"/>
</linearGradient>
<linearGradient id="paint7_linear_4_3" x1="569.424" y1="66" x2="-50.576" y2="59.0001" gradientUnits="userSpaceOnUse">
<stop stop-color="#CD8DFF"/>
<stop offset="0.226953" stop-color="#D88AE0"/>
<stop offset="1" stop-color="#FF7D75"/>
</linearGradient>
<linearGradient id="paint8_linear_4_3" x1="569.424" y1="66" x2="-50.576" y2="59.0001" gradientUnits="userSpaceOnUse">
<stop stop-color="#CD8DFF"/>
<stop offset="0.226953" stop-color="#D88AE0"/>
<stop offset="1" stop-color="#FF7D75"/>
</linearGradient>
</defs>
</svg>
