<svg width="630" height="128" viewBox="0 0 630 128" fill="none" xmlns="http://www.w3.org/2000/svg">
<g filter="url(#filter0_i_65_2)">
<path d="M33.238 8.064C26.7527 10.1973 21.718 13.7387 18.134 18.688C14.6353 23.552 12.886 29.6107 12.886 36.864C12.886 40.1067 13.1847 42.3253 13.782 43.52C14.3793 44.7147 14.678 45.44 14.678 45.696C5.54733 45.696 0.981995 41.8133 0.981995 34.048C0.981995 28.7573 2.98733 23.4667 6.99799 18.176C11.094 12.8 16.2993 8.448 22.614 5.12C29.014 1.70666 35.3713 -7.62939e-06 41.686 -7.62939e-06C44.8433 -7.62939e-06 48.086 0.597326 51.414 1.79199L48.47 69.248L76.63 1.79199H95.062L81.622 96H63.19L71.382 38.528L47.318 96H29.782L32.342 38.272L10.966 96H0.725994L33.238 8.064ZM116.708 96.512C110.393 96.512 105.401 94.8907 101.732 91.648C98.0627 88.4053 96.228 83.2853 96.228 76.288C96.228 70.4853 97.4227 64.0427 99.812 56.96C102.201 49.8773 106.041 43.776 111.332 38.656C116.623 33.4507 123.279 30.848 131.3 30.848C142.223 30.848 147.684 37.6747 147.684 51.328V51.456C147.94 51.5413 148.409 51.584 149.092 51.584C151.908 51.584 155.151 50.8587 158.82 49.408C162.489 47.872 165.817 46.0373 168.804 43.904L169.956 47.36C167.481 50.0053 164.239 52.2667 160.228 54.144C156.303 55.936 151.993 57.216 147.3 57.984C146.617 65.7493 144.868 72.5333 142.052 78.336C139.236 84.1387 135.609 88.6187 131.172 91.776C126.735 94.9333 121.913 96.512 116.708 96.512ZM121.828 84.992C123.876 84.992 125.924 83.84 127.972 81.536C130.02 79.1467 131.812 75.9467 133.348 71.936C134.884 67.84 135.993 63.3173 136.676 58.368C134.372 57.856 133.22 56.064 133.22 52.992C133.22 49.4933 134.543 47.1893 137.188 46.08C137.017 43.264 136.591 41.344 135.908 40.32C135.225 39.2107 134.031 38.656 132.324 38.656C129.508 38.656 126.777 40.704 124.132 44.8C121.487 48.896 119.353 53.8027 117.732 59.52C116.111 65.2373 115.3 70.272 115.3 74.624C115.3 78.72 115.769 81.4933 116.708 82.944C117.647 84.3093 119.353 84.992 121.828 84.992ZM173.982 96.768C169.033 96.768 165.15 95.5307 162.334 93.056C159.603 90.496 158.238 86.6987 158.238 81.664C158.238 79.616 158.451 77.568 158.878 75.52L168.094 32H186.526L177.31 75.52C176.883 77.6533 176.67 79.1893 176.67 80.128C176.67 82.944 178.121 84.352 181.022 84.352C184.947 84.352 188.574 81.8773 191.902 76.928C195.315 71.9787 198.046 66.0907 200.094 59.264C202.142 52.4373 203.166 46.5493 203.166 41.6C202.995 42.0267 202.441 42.368 201.502 42.624C200.563 42.7947 199.753 42.88 199.07 42.88C197.619 42.88 196.467 42.1973 195.614 40.832C194.846 39.4667 194.462 37.9733 194.462 36.352C194.462 34.304 195.102 32.64 196.382 31.36C197.747 30.08 199.753 29.44 202.398 29.44C205.214 29.44 207.262 30.5067 208.542 32.64C209.822 34.688 210.462 37.3333 210.462 40.576C210.462 48.256 209.139 56.4907 206.494 65.28C203.849 73.984 199.795 81.408 194.334 87.552C188.873 93.696 182.089 96.768 173.982 96.768ZM238.886 25.088C236.07 25.088 233.681 24.1067 231.718 22.144C229.755 20.1813 228.774 17.792 228.774 14.976C228.774 12.16 229.755 9.77067 231.718 7.808C233.681 5.75999 236.07 4.73599 238.886 4.73599C241.702 4.73599 244.091 5.75999 246.054 7.808C248.102 9.77067 249.126 12.16 249.126 14.976C249.126 17.792 248.102 20.1813 246.054 22.144C244.091 24.1067 241.702 25.088 238.886 25.088ZM230.182 96.768C226.086 96.768 222.758 95.488 220.198 92.928C217.723 90.368 216.486 86.528 216.486 81.408C216.486 79.2747 216.827 76.5013 217.51 73.088L226.214 32H244.646L235.43 75.52C235.089 76.8 234.918 78.1653 234.918 79.616C234.918 81.3227 235.302 82.56 236.07 83.328C236.923 84.0107 238.289 84.352 240.166 84.352C242.641 84.352 244.945 83.328 247.078 81.28C249.211 79.1467 250.747 76.416 251.686 73.088H257.062C253.905 82.304 249.851 88.576 244.902 91.904C239.953 95.1467 235.046 96.768 230.182 96.768ZM274.803 96.768C268.574 96.768 263.71 95.1467 260.211 91.904C256.712 88.576 254.963 83.4133 254.963 76.416C254.963 70.528 256.115 64.0427 258.419 56.96C260.723 49.8773 264.478 43.776 269.683 38.656C274.888 33.4507 281.502 30.848 289.523 30.848C298.91 30.848 303.603 34.944 303.603 43.136C303.603 47.9147 302.238 52.3093 299.507 56.32C296.776 60.3307 293.15 63.5733 288.627 66.048C284.104 68.4373 279.283 69.8027 274.163 70.144C273.992 72.0213 273.907 73.3013 273.907 73.984C273.907 81.0667 276.552 84.608 281.843 84.608C284.232 84.608 286.792 83.968 289.523 82.688C292.254 81.408 294.728 79.7867 296.947 77.824C294.643 90.4533 287.262 96.768 274.803 96.768ZM275.059 64C278.302 63.9147 281.331 62.848 284.147 60.8C287.048 58.752 289.352 56.1493 291.059 52.992C292.851 49.7493 293.747 46.3787 293.747 42.88C293.747 39.3813 292.68 37.632 290.547 37.632C287.56 37.632 284.574 40.3627 281.587 45.824C278.686 51.2 276.51 57.2587 275.059 64ZM380.302 128C376.462 128 372.665 126.891 368.91 124.672C365.241 122.539 360.547 119.211 354.83 114.688C350.563 111.275 346.894 108.501 343.822 106.368C340.835 104.32 337.55 102.571 333.966 101.12C330.467 99.6693 326.883 98.944 323.214 98.944C321.934 98.944 320.953 98.9867 320.27 99.072L339.342 10.368C333.625 12.672 329.187 16.2133 326.03 20.992C322.958 25.6853 321.422 31.4453 321.422 38.272C321.422 41.4293 321.721 43.648 322.318 44.928C322.915 46.1227 323.214 46.8053 323.214 46.976C318.606 46.976 315.15 46.0373 312.846 44.16C310.627 42.1973 309.518 38.9973 309.518 34.56C309.518 29.0987 311.737 23.808 316.174 18.688C320.697 13.4827 326.457 9.30133 333.454 6.144C340.451 2.90133 347.449 1.28 354.446 1.28C355.641 1.28 357.347 1.36533 359.566 1.536L339.854 93.44C342.243 94.0373 344.675 94.8907 347.15 96C349.71 97.1947 352.782 98.7733 356.366 100.736C361.913 103.723 366.649 105.984 370.574 107.52C374.499 109.141 378.595 109.952 382.862 109.952C386.702 109.952 390.286 109.269 393.614 107.904C392.931 114.133 391.395 119.04 389.006 122.624C386.702 126.208 383.801 128 380.302 128ZM381.058 96.512C374.743 96.512 369.751 94.8907 366.082 91.648C362.413 88.4053 360.578 83.2853 360.578 76.288C360.578 70.4853 361.773 64.0427 364.162 56.96C366.551 49.8773 370.391 43.776 375.682 38.656C380.973 33.4507 387.629 30.848 395.65 30.848C406.573 30.848 412.034 37.6747 412.034 51.328V51.456C412.29 51.5413 412.759 51.584 413.442 51.584C416.258 51.584 419.501 50.8587 423.17 49.408C426.839 47.872 430.167 46.0373 433.154 43.904L434.306 47.36C431.831 50.0053 428.589 52.2667 424.578 54.144C420.653 55.936 416.343 57.216 411.65 57.984C410.967 65.7493 409.218 72.5333 406.402 78.336C403.586 84.1387 399.959 88.6187 395.522 91.776C391.085 94.9333 386.263 96.512 381.058 96.512ZM386.178 84.992C388.226 84.992 390.274 83.84 392.322 81.536C394.37 79.1467 396.162 75.9467 397.698 71.936C399.234 67.84 400.343 63.3173 401.026 58.368C398.722 57.856 397.57 56.064 397.57 52.992C397.57 49.4933 398.893 47.1893 401.538 46.08C401.367 43.264 400.941 41.344 400.258 40.32C399.575 39.2107 398.381 38.656 396.674 38.656C393.858 38.656 391.127 40.704 388.482 44.8C385.837 48.896 383.703 53.8027 382.082 59.52C380.461 65.2373 379.65 70.272 379.65 74.624C379.65 78.72 380.119 81.4933 381.058 82.944C381.997 84.3093 383.703 84.992 386.178 84.992ZM438.332 96.768C433.383 96.768 429.5 95.5307 426.684 93.056C423.953 90.496 422.588 86.6987 422.588 81.664C422.588 79.616 422.801 77.568 423.228 75.52L432.444 32H450.876L441.66 75.52C441.233 77.6533 441.02 79.1893 441.02 80.128C441.02 82.944 442.471 84.352 445.372 84.352C449.297 84.352 452.924 81.8773 456.252 76.928C459.665 71.9787 462.396 66.0907 464.444 59.264C466.492 52.4373 467.516 46.5493 467.516 41.6C467.345 42.0267 466.791 42.368 465.852 42.624C464.913 42.7947 464.103 42.88 463.42 42.88C461.969 42.88 460.817 42.1973 459.964 40.832C459.196 39.4667 458.812 37.9733 458.812 36.352C458.812 34.304 459.452 32.64 460.732 31.36C462.097 30.08 464.103 29.44 466.748 29.44C469.564 29.44 471.612 30.5067 472.892 32.64C474.172 34.688 474.812 37.3333 474.812 40.576C474.812 48.256 473.489 56.4907 470.844 65.28C468.199 73.984 464.145 81.408 458.684 87.552C453.223 93.696 446.439 96.768 438.332 96.768ZM500.164 96.768C493.849 96.768 488.943 95.1467 485.444 91.904C481.945 88.576 480.196 83.4133 480.196 76.416C480.196 70.528 481.348 64.0427 483.652 56.96C485.956 49.8773 489.711 43.776 494.916 38.656C500.121 33.4507 506.735 30.848 514.756 30.848C524.143 30.848 528.836 34.944 528.836 43.136C528.836 47.9147 527.471 52.3093 524.74 56.32C522.009 60.3307 518.383 63.5733 513.86 66.048C509.337 68.4373 504.516 69.8027 499.396 70.144C499.225 72.704 499.14 74.4107 499.14 75.264C499.14 79.4453 499.865 82.304 501.316 83.84C502.767 85.2907 505.113 86.016 508.356 86.016C512.964 86.016 516.889 84.9493 520.132 82.816C523.46 80.6827 527.087 77.44 531.012 73.088H535.364C525.892 88.8747 514.159 96.768 500.164 96.768ZM500.42 64C503.577 63.8293 506.564 62.72 509.38 60.672C512.281 58.624 514.585 56.0213 516.292 52.864C518.084 49.7067 518.98 46.3787 518.98 42.88C518.98 39.3813 517.913 37.632 515.78 37.632C512.708 37.632 509.679 40.32 506.692 45.696C503.791 51.072 501.7 57.1733 500.42 64ZM544.809 32H563.241L561.577 39.936C564.478 37.376 567.081 35.4133 569.385 34.048C571.774 32.6827 574.334 32 577.065 32C579.796 32 581.929 32.9387 583.465 34.816C585.086 36.6933 585.897 38.9547 585.897 41.6C585.897 44.0747 585.086 46.2507 583.465 48.128C581.844 50.0053 579.582 50.944 576.681 50.944C574.804 50.944 573.524 50.5173 572.841 49.664C572.244 48.7253 571.774 47.4027 571.433 45.696C571.177 44.5867 570.921 43.776 570.665 43.264C570.409 42.752 569.94 42.496 569.257 42.496C567.465 42.496 565.929 42.88 564.649 43.648C563.454 44.3307 561.876 45.568 559.913 47.36L549.673 96H531.241L544.809 32ZM603.942 96.768C599.846 96.768 596.39 96 593.574 94.464C590.758 92.8427 588.667 90.7947 587.302 88.32C585.937 85.76 585.254 83.1147 585.254 80.384C585.254 77.568 585.937 75.136 587.302 73.088C588.582 70.9547 590.161 69.4187 592.038 68.48C595.366 62.5067 598.267 56.4907 600.742 50.432C603.217 44.288 605.563 37.6747 607.782 30.592L626.726 28.032C627.153 38.9547 627.878 50.7733 628.902 63.488C629.329 68.608 629.542 72.32 629.542 74.624C629.542 79.8293 628.219 84.096 625.574 87.424C622.929 90.752 619.643 93.1413 615.718 94.592C611.878 96.0427 607.953 96.768 603.942 96.768ZM599.846 86.656C603.003 86.656 605.649 85.7173 607.782 83.84C609.915 81.9627 610.982 78.9333 610.982 74.752C610.982 72.192 610.726 68.608 610.214 64C609.361 54.272 608.806 47.744 608.55 44.416C606.502 51.1573 603.046 59.2213 598.182 68.608C600.145 69.632 601.126 71.1253 601.126 73.088C601.126 74.7093 600.571 76.16 599.462 77.44C598.438 78.72 597.115 79.36 595.494 79.36C593.702 79.36 592.55 78.8053 592.038 77.696C592.038 80.768 592.635 83.0293 593.83 84.48C595.11 85.9307 597.115 86.656 599.846 86.656Z" fill="url(#paint0_linear_65_2)"/>
<path d="M-7.85001 108.8H629.798V115.2H-7.85001V108.8Z" fill="url(#paint1_linear_65_2)"/>
</g>
<defs>
<filter id="filter0_i_65_2" x="0.726074" y="0" width="628.816" height="131" filterUnits="userSpaceOnUse" color-interpolation-filters="sRGB">
<feFlood flood-opacity="0" result="BackgroundImageFix"/>
<feBlend mode="normal" in="SourceGraphic" in2="BackgroundImageFix" result="shape"/>
<feColorMatrix in="SourceAlpha" type="matrix" values="0 0 0 0 0 0 0 0 0 0 0 0 0 0 0 0 0 0 127 0" result="hardAlpha"/>
<feOffset dy="4"/>
<feGaussianBlur stdDeviation="1.5"/>
<feComposite in2="hardAlpha" operator="arithmetic" k2="-1" k3="1"/>
<feColorMatrix type="matrix" values="0 0 0 0 0 0 0 0 0 0 0 0 0 0 0 0 0 0 0.42 0"/>
<feBlend mode="normal" in2="shape" result="effect1_innerShadow_65_2"/>
</filter>
<linearGradient id="paint0_linear_65_2" x1="254.5" y1="72" x2="697.5" y2="-4.50001" gradientUnits="userSpaceOnUse">
<stop stop-color="#6656FF"/>
<stop offset="1" stop-color="#E3E0FF"/>
</linearGradient>
<linearGradient id="paint1_linear_65_2" x1="254.5" y1="72" x2="697.5" y2="-4.50001" gradientUnits="userSpaceOnUse">
<stop stop-color="#6656FF"/>
<stop offset="1" stop-color="#E3E0FF"/>
</linearGradient>
</defs>
</svg>
